<?xml version="1.0" encoding="UTF-8"?>
<svg xmlns="http://www.w3.org/2000/svg" viewBox="0 0 256 256" width="256" height="256"
     role="img" aria-label="Krusader">
  <defs>
    <linearGradient id="bg" x1="0" y1="0" x2="0" y2="1">
      <stop offset="0"   stop-color="#161b22"/>
      <stop offset="1"   stop-color="#0a0d11"/>
    </linearGradient>
    <linearGradient id="paneFill" x1="0" y1="0" x2="0" y2="1">
      <stop offset="0" stop-color="#2b323a"/>
      <stop offset="1" stop-color="#1f242a"/>
    </linearGradient>
  </defs>

  <!-- Rounded square background -->
  <rect x="0" y="0" width="256" height="256" rx="36" fill="url(#bg)"/>

  <!-- Krusader window, scaled -->
  <g transform="translate(28 28) scale(4.166)">
    <rect x="0" y="0" width="48" height="48" rx="2" fill="#252a31"/>
    <rect x="0" y="0" width="48" height="6" fill="#566069"/>
    <rect x="0" y="6" width="48" height="1.2" fill="#1d99f3"/>
    <rect x="44" y="1.5" width="3" height="3" rx="1.5" fill="#eff0f1"/>
    <rect x="2" y="9" width="20" height="36" fill="url(#paneFill)"/>
    <rect x="26" y="9" width="20" height="36" fill="url(#paneFill)"/>
    <g fill="#1d99f3">
      <path d="M3 11h2.5v1.2h2.5v3.6H3z"/>
      <path d="M3 19h2.5v1.2h2.5v3.6H3z"/>
      <path d="M3 27h2.5v1.2h2.5v3.6H3z"/>
      <path d="M27 11h2.5v1.2H32v3.6h-5z"/>
      <path d="M27 19h2.5v1.2H32v3.6h-5z"/>
      <path d="M27 27h2.5v1.2H32v3.6h-5z"/>
      <path d="M27 35h2.5v1.2H32v3.6h-5z"/>
    </g>
  </g>
</svg>
