<svg xmlns="http://www.w3.org/2000/svg" width="1600" height="500" viewBox="0 0 1600 500" role="img" aria-label="Krusader">
  <rect width="1600" height="500" fill="#ffffff"/>
  <svg x="190.9" y="50.0" width="400" height="400" viewBox="0 0 200.00003 199.99998" xmlns="http://www.w3.org/2000/svg">
  <defs
     id="defs3" />
  <path
     d="M 1.35629,168.24998 C 1.35629,168.24998 18.61115,193.99998 18.61115,193.99998 L 181.76464,193.99998 C 181.76464,193.99998 197.82336,168.24998 197.82336,168.24998 L 1.35629,168.24998 z"
     id="path2986"
     style="fill:#232629" />
  <path
     d="M 196.57336,36.31613 L 3.41879,36.31613 L 3.41879,165.44012 L 196.57336,165.44012 L 196.57336,36.31613 z"
     id="path2988"
     style="fill:#2980b9" />
  <path
     d="M 18.48615,5.42687 C 18.48615,5.42687 1.91879,33.23431 1.91879,33.23431 L 198.32336,33.23431 C 198.32336,33.23431 180.51464,5.42687 180.51464,5.42687 L 18.48615,5.42687 z"
     id="path2990"
     style="fill:#232629" />
  <path
     d="M 31.68544,16.65283 C 30.44953,16.63535 29.29996,17.28466 28.67687,18.35211 C 28.05378,19.41957 28.05378,20.7398 28.67687,21.80726 C 29.29996,22.87472 30.44953,23.52403 31.68544,23.50654 L 152.65867,23.50654 C 153.89457,23.52403 155.04415,22.87472 155.66724,21.80726 C 156.29022,20.7398 156.29022,19.41957 155.66724,18.35211 C 155.04415,17.28466 153.89457,16.63535 152.65867,16.65283 L 31.68544,16.65283 z"
     id="path2992"
     style="fill:#1d6794" />
  <path
     d="M 34.23583,0 C 15.32809,0 0,15.32741 0,34.23431 L 0,165.76567 C 0,184.67257 15.32809,199.99998 34.23583,199.99998 L 165.7642,199.99998 C 184.67194,199.99998 199.99992,184.67257 200.00003,165.76567 L 200.00003,34.23431 C 200.00003,15.32741 184.67194,0 165.7642,0 L 34.23583,0 z M 34.23583,6.85372 L 165.7642,6.85372 C 180.24977,6.85372 191.92642,17.85396 193.03458,32.03256 L 6.96533,31.94689 C 8.11349,17.80922 19.7791,6.85372 34.23583,6.85372 z M 6.85398,38.8006 L 96.6158,38.84343 L 96.52161,162.07323 L 6.85398,162.0304 L 6.85398,38.8006 z M 103.46979,38.84343 L 193.14604,38.88627 L 193.14604,162.11607 L 103.37559,162.07323 L 103.46979,38.84343 z M 7.03396,168.88411 L 192.94891,168.96979 C 191.3819,182.66172 179.90719,193.14627 165.7642,193.14627 L 34.23583,193.14627 C 20.06278,193.14627 8.56196,182.6188 7.03396,168.88411 z"
     id="path2994"
     style="fill:#1b1e20;fill-rule:evenodd" />
  <path
     d="M 36.4551,169.73654 C 35.00316,169.80712 33.7537,170.78589 33.33758,172.17865 C 32.92146,173.57142 33.42926,175.07516 34.60452,175.93059 L 41.19297,180.84813 L 34.8187,186.10836 C 33.359,187.31489 33.15378,189.47628 34.3604,190.93594 C 35.56691,192.39561 37.72838,192.60081 39.1882,191.39429 L 48.92083,183.34974 C 49.73231,182.68047 50.19148,181.67566 50.16646,180.62413 C 50.14133,179.57262 49.63483,178.59084 48.79232,177.961 L 38.69984,170.43905 C 38.05785,169.94745 37.26276,169.69863 36.4551,169.73654 z"
     id="path2996"
     style="fill:#1d6794" />
  <path
     d="M 18.27205,55.19545 C 17.82413,55.17797 17.40749,55.82728 17.18167,56.89474 C 16.95584,57.96219 16.95584,59.28242 17.18167,60.34988 C 17.40749,61.41734 17.82413,62.06665 18.27205,62.04916 L 62.11565,62.04916 C 62.56357,62.06665 62.9802,61.41734 63.20603,60.34988 C 63.43182,59.28242 63.43182,57.96219 63.20603,56.89474 C 62.9802,55.82728 62.56357,55.17797 62.11565,55.19545 L 18.27205,55.19545 z"
     id="path2998"
     style="fill:#1d6794" />
  <path
     d="M 18.27205,78.24538 C 17.82413,78.2279 17.40749,78.87721 17.18167,79.94467 C 16.95584,81.01212 16.95584,82.33236 17.18167,83.39981 C 17.40749,84.46727 17.82413,85.11658 18.27205,85.0991 L 62.11565,85.0991 C 62.56357,85.11658 62.9802,84.46727 63.20603,83.39981 C 63.43182,82.33236 63.43182,81.01212 63.20603,79.94467 C 62.9802,78.87721 62.56357,78.2279 62.11565,78.24538 L 18.27205,78.24538 z"
     id="path3000"
     style="fill:#1d6794" />
  <path
     d="M 18.27205,101.29532 C 17.82413,101.27783 17.40749,101.92714 17.18167,102.9946 C 16.95584,104.06205 16.95584,105.38229 17.18167,106.44974 C 17.40749,107.5172 17.82413,108.16651 18.27205,108.14903 L 62.11565,108.14903 C 62.56357,108.16651 62.9802,107.5172 63.20603,106.44974 C 63.43182,105.38229 63.43182,104.06205 63.20603,102.9946 C 62.9802,101.92714 62.56357,101.27783 62.11565,101.29532 L 18.27205,101.29532 z"
     id="path3002"
     style="fill:#1d6794" />
  <path
     d="M 18.27205,124.34524 C 17.82413,124.32775 17.40749,124.97706 17.18167,126.04452 C 16.95584,127.11198 16.95584,128.43221 17.18167,129.49966 C 17.40749,130.56712 17.82413,131.21643 18.27205,131.19895 L 62.11565,131.19895 C 62.56357,131.21643 62.9802,130.56712 63.20603,129.49966 C 63.43182,128.43221 63.43182,127.11198 63.20603,126.04452 C 62.9802,124.97706 62.56357,124.32775 62.11565,124.34524 L 18.27205,124.34524 z"
     id="path3004"
     style="fill:#1d6794" />
  <path
     d="M 117.08739,55.19545 C 116.63947,55.17797 116.22284,55.82728 115.99702,56.89474 C 115.77119,57.96219 115.77119,59.28242 115.99702,60.34988 C 116.22284,61.41734 116.63947,62.06665 117.08739,62.04916 L 160.93099,62.04916 C 161.37891,62.06665 161.79555,61.41734 162.02138,60.34988 C 162.24716,59.28242 162.24716,57.96219 162.02138,56.89474 C 161.79555,55.82728 161.37891,55.17797 160.93099,55.19545 L 117.08739,55.19545 z"
     id="path3006"
     style="fill:#1d6794" />
  <path
     d="M 117.08739,78.24538 C 116.63947,78.2279 116.22284,78.87721 115.99702,79.94467 C 115.77119,81.01212 115.77119,82.33236 115.99702,83.39981 C 116.22284,84.46727 116.63947,85.11658 117.08739,85.0991 L 160.93099,85.0991 C 161.37891,85.11658 161.79555,84.46727 162.02138,83.39981 C 162.24716,82.33236 162.24716,81.01212 162.02138,79.94467 C 161.79555,78.87721 161.37891,78.2279 160.93099,78.24538 L 117.08739,78.24538 z"
     id="path3008"
     style="fill:#1d6794" />
  <path
     d="M 82.06665,45.68601 C 81.48595,45.65171 80.88194,45.66785 80.2393,45.76037 C 79.58534,45.85454 78.99999,46.01065 78.4974,46.18918 C 77.93801,46.38794 77.41034,46.6403 76.91931,46.93147 C 76.44053,47.21541 75.96832,47.55395 75.52232,47.95028 C 75.07747,48.34558 74.68504,48.77489 74.34608,49.21756 C 74.0512,49.60292 73.72008,50.08812 73.41526,50.70443 C 73.1194,51.30265 72.92422,51.86009 72.78431,52.38367 C 72.65302,52.87796 72.58469,53.38687 72.58095,53.8983 C 72.57708,54.41159 72.57365,54.90098 72.57046,55.36353 C 72.57046,55.36353 72.51315,145.97812 72.51315,145.97812 C 72.51314,146.22768 72.50626,146.52297 72.50632,146.86634 C 72.50662,147.50433 72.60763,148.13831 72.80548,148.74483 C 72.27988,147.13297 72.24971,147.21229 72.86955,148.94608 C 73.22466,149.94595 73.76154,150.78134 74.3548,151.44904 C 74.94863,152.11742 75.72291,152.75662 76.67275,153.22647 C 77.59494,153.68245 78.59115,153.93978 79.61217,154.00008 C 80.63299,154.06036 81.68064,153.90906 82.61458,153.57734 C 84.58662,152.87682 84.77475,152.5686 83.30926,153.2614 C 83.63381,153.10995 83.94438,152.93001 84.23721,152.72376 C 84.80123,152.322 84.76249,152.39384 84.2381,152.70864 C 84.3406,152.64167 84.44092,152.57159 84.53912,152.49854 C 84.63309,152.42786 84.74445,152.34165 84.87312,152.24485 C 84.87312,152.24485 103.39865,138.2244 103.39865,138.2244 C 103.39865,138.2244 120.71536,170.65298 120.71536,170.65298 C 120.87015,170.94864 121.04908,171.23103 121.25037,171.49727 C 122.21811,172.77119 123.68022,174.12736 125.81115,174.78185 C 127.94209,175.43634 130.45468,175.06419 132.24376,174.15155 C 139.08302,170.84996 145.5194,167.76579 152.3747,164.45642 C 152.43534,164.42554 152.49544,164.39362 152.55502,164.36072 C 154.62758,163.27222 156.39309,160.76383 156.72565,158.56124 C 157.05828,156.35868 156.5169,154.68433 155.89471,153.33988 C 155.83558,153.21243 155.77207,153.0871 155.70425,152.96406 C 155.70425,152.96406 138.54853,121.15261 138.54853,121.15261 C 138.54853,121.15261 151.9679,117.8643 158.67926,116.21962 C 159.06864,116.12422 159.48478,116.0199 159.92026,115.91315 C 160.50592,115.77163 161.06723,115.54368 161.58572,115.23677 C 161.02831,115.56933 161.59856,115.4624 162.83744,114.36131 C 163.60732,113.6774 164.24842,112.83974 164.71474,111.89739 C 164.90123,111.52023 165.12157,111.02566 165.28948,110.39712 C 165.44709,109.80672 165.51574,109.2659 165.54448,108.77921 C 165.57314,108.29381 165.569,107.74893 165.48168,107.14254 C 165.38888,106.49928 165.22761,105.98869 165.08707,105.5926 C 164.68293,104.45521 164.13562,103.70459 163.78883,103.26779 C 163.44264,102.83402 163.03847,102.44981 162.58784,102.12594 C 162.27279,101.89804 161.96773,101.67957 161.66987,101.46412 C 161.66987,101.46412 87.35299,47.87417 87.35299,47.87417 C 86.98011,47.60522 86.59723,47.33485 86.20893,47.05469 C 85.82763,46.7786 85.41567,46.54781 84.98112,46.36698 C 85.09554,46.41431 84.73137,46.20592 83.8649,45.97446 C 83.25747,45.81231 82.64725,45.72029 82.06665,45.68601 z"
     id="path3010"
     style="fill:#fcfcfc" />
  <path
     d="M 81.70682,51.73832 C 81.50117,51.72617 81.29674,51.73325 81.10042,51.76151 C 80.90423,51.78977 80.714,51.84005 80.53134,51.90496 C 80.34866,51.96985 80.17515,52.05182 80.01031,52.14959 C 79.84546,52.24736 79.69062,52.35933 79.54779,52.4862 C 79.40506,52.6131 79.27556,52.75364 79.15902,52.90586 C 79.04262,53.05807 78.93586,53.22037 78.84985,53.39417 C 78.76391,53.56792 78.69622,53.75605 78.6451,53.94763 C 78.64144,54.43436 78.64089,54.92107 78.63754,55.40782 C 78.63754,55.40782 78.57588,145.97796 78.57588,145.97796 C 78.5759,146.27459 78.57251,146.57126 78.57254,146.8679 C 78.57665,146.88047 78.57558,146.89526 78.57997,146.90768 C 78.64836,147.09998 78.7554,147.27234 78.88892,147.42265 C 79.02246,147.57295 79.18103,147.69955 79.36391,147.79004 C 79.54691,147.88051 79.75299,147.93594 79.96933,147.94872 C 80.18579,147.9615 80.39202,147.93041 80.58439,147.86211 C 80.63367,147.84455 80.66991,147.80363 80.71694,147.7814 C 80.7746,147.74037 80.83476,147.67926 80.89196,147.6491 C 81.00339,147.56534 81.11515,147.48219 81.22646,147.39839 C 81.22646,147.39839 105.40277,129.10013 105.40277,129.10013 C 105.40277,129.10013 126.0787,167.82529 126.0787,167.82529 C 126.95486,168.97866 128.10401,169.45441 129.48654,168.74916 C 129.48654,168.74916 149.7353,158.99291 149.7353,158.99291 C 150.94415,158.35797 150.94935,157.09039 150.39109,155.88415 C 150.39109,155.88415 129.52081,117.11799 129.52081,117.11799 C 129.52081,117.11799 157.23736,110.3253 157.23736,110.3253 C 157.64972,110.22428 158.06253,110.12567 158.47479,110.02463 C 158.58586,109.95836 158.7098,109.9134 158.80612,109.8278 C 159.0016,109.6542 159.16288,109.44442 159.28059,109.20663 C 159.33935,109.08773 159.39063,108.96267 159.42568,108.8316 C 159.46065,108.70053 159.48088,108.56292 159.48919,108.42225 C 159.49749,108.28157 159.4936,108.14254 159.4743,108.00826 C 159.45492,107.87399 159.41872,107.74375 159.37436,107.61877 C 159.29836,107.40494 159.17357,107.21809 159.03452,107.04296 C 158.72819,106.82133 158.42116,106.60044 158.11475,106.37882 C 158.11475,106.37882 83.80333,52.79651 83.80333,52.79651 C 83.42274,52.52195 83.0425,52.24632 82.66188,51.97174 C 82.54311,51.92263 82.42739,51.86611 82.30122,51.83241 C 82.10959,51.78124 81.91243,51.75046 81.70682,51.73832 z"
     id="path3012"
     style="fill:#1b1e20" />
</svg>
  <path d="M659.56 271.44L681.68 157.47L708.05 157.47L696.04 219.21L731.41 189.40L762.32 189.40L714.64 227.34L749.29 271.44L719.33 271.44L692.74 236.06L685.86 271.44M836.44 188.01L831.83 211.74Q829.12 210.21 825.82 209.40Q822.53 208.59 818.72 208.59Q808.68 208.59 802.06 215.04Q795.43 221.48 793.08 233.64L785.61 271.44L759.32 271.44L775.29 189.40L801.65 189.40L798.80 203.47Q804 195.70 811.80 191.57Q819.60 187.43 829.12 187.43Q830.51 187.43 832.27 187.57Q834.03 187.72 836.44 188.01M838.86 239.50L848.46 189.40L874.75 189.40L866.47 232.10Q865.59 236.28 865.15 239.21Q864.71 242.14 864.71 243.82Q864.71 248.44 867.28 251Q869.84 253.56 874.60 253.56Q882.73 253.56 888.59 247.27Q894.45 240.97 896.65 229.76L904.56 189.40L930.85 189.40L914.96 271.44L888.52 271.44L890.94 259.42Q884.20 266.53 876.80 270.04Q869.40 273.56 861.20 273.56Q849.99 273.56 843.84 267.63Q837.69 261.69 837.69 250.85Q837.69 248.29 837.98 245.44Q838.27 242.58 838.86 239.50M1019.48 191.97L1015.59 212.33Q1007.90 208.67 1000.29 206.76Q992.67 204.86 985.86 204.86Q978.09 204.86 973.88 206.87Q969.67 208.89 969.67 212.62Q969.67 214.82 972.01 216.14Q974.36 217.46 981.24 218.92L986 219.80Q1001.90 223.17 1008.27 228.48Q1014.64 233.79 1014.64 243.24Q1014.64 257.52 1003.44 265.54Q992.23 273.56 972.09 273.56Q963.67 273.56 954.88 272.24Q946.09 270.92 936.93 268.29L940.89 247.71Q947.99 251.88 956.08 254Q964.18 256.13 972.67 256.13Q980.95 256.13 985.13 254.15Q989.30 252.17 989.30 248.36Q989.30 245.73 986.96 244.26Q984.61 242.80 977.29 241.26L972.53 240.38Q958.46 237.45 952.46 231.74Q946.45 226.03 946.45 215.92Q946.45 202.22 956.82 194.82Q967.18 187.43 986.44 187.43Q994.87 187.43 1003.03 188.56Q1011.20 189.70 1019.48 191.97M1086.71 234.52L1074.11 234.52Q1064.30 234.52 1059.28 237.56Q1054.27 240.60 1054.27 246.53Q1054.27 251 1057.23 253.56Q1060.20 256.13 1065.40 256.13Q1073.46 256.13 1078.88 251.26Q1084.29 246.39 1086.13 237.52L1086.71 234.52M1115.06 224.63L1105.90 271.44L1079.68 271.44L1081.88 259.28Q1075.43 266.60 1068.25 270.08Q1061.08 273.56 1052.65 273.56Q1041.01 273.56 1034.16 267.52Q1027.31 261.48 1027.31 251.22Q1027.31 235.55 1039.43 227.23Q1051.56 218.92 1074.41 218.92L1089.86 218.92L1090.15 216.87Q1090.37 215.85 1090.41 215.41Q1090.45 214.97 1090.45 214.60Q1090.45 209.77 1085.87 207.31Q1081.29 204.86 1072.28 204.86Q1064.15 204.86 1056.54 206.54Q1048.92 208.23 1041.81 211.60L1045.77 191.60Q1053.97 189.55 1062.58 188.49Q1071.18 187.43 1080.41 187.43Q1098.65 187.43 1107.51 193.69Q1116.38 199.95 1116.38 212.77Q1116.38 215.26 1116.05 218.23Q1115.72 221.19 1115.06 224.63M1172.04 254.52Q1182.15 254.52 1188.48 245.22Q1194.82 235.91 1194.82 220.90Q1194.82 214.09 1191.27 210.28Q1187.71 206.47 1181.34 206.47Q1171.38 206.47 1164.93 215.66Q1158.49 224.85 1158.49 239.21Q1158.49 246.68 1161.97 250.60Q1165.45 254.52 1172.04 254.52M1199.65 201.42L1208.15 157.47L1234.59 157.47L1212.40 271.44L1185.96 271.44L1188.37 259.57Q1182.37 266.75 1175.77 270.15Q1169.18 273.56 1161.35 273.56Q1147.50 273.56 1139.45 264.77Q1131.39 255.98 1131.39 240.82Q1131.39 231.37 1134.21 222.44Q1137.03 213.50 1142.30 206.18Q1148.97 196.95 1157.35 192.19Q1165.74 187.43 1175.33 187.43Q1183.76 187.43 1189.65 190.83Q1195.55 194.24 1199.65 201.42M1327.68 233.50L1326.80 237.67L1265.42 237.67Q1265.42 238.11 1265.35 238.95Q1265.28 239.80 1265.28 240.23Q1265.28 248.22 1270.07 252.17Q1274.87 256.13 1284.47 256.13Q1292.74 256.13 1301.93 253.64Q1311.13 251.15 1321.23 246.24L1317.21 266.60Q1307.61 270.12 1298.13 271.84Q1288.64 273.56 1278.83 273.56Q1259.64 273.56 1249.20 264.70Q1238.76 255.84 1238.76 239.65Q1238.76 230.27 1242.10 221.45Q1245.43 212.62 1251.80 205.30Q1259.34 196.51 1269.85 191.97Q1280.36 187.43 1293.18 187.43Q1309.81 187.43 1319.59 196.29Q1329.36 205.15 1329.36 220.17Q1329.36 223.10 1328.96 226.36Q1328.56 229.61 1327.68 233.50M1269.01 221.48L1302.92 221.48Q1303.14 220.53 1303.25 219.54Q1303.36 218.56 1303.36 217.60Q1303.36 211.74 1299.85 208.30Q1296.33 204.86 1290.33 204.86Q1282.63 204.86 1277.25 209.07Q1271.87 213.28 1269.01 221.48M1416.81 188.01L1412.20 211.74Q1409.49 210.21 1406.19 209.40Q1402.90 208.59 1399.09 208.59Q1389.06 208.59 1382.43 215.04Q1375.80 221.48 1373.46 233.64L1365.98 271.44L1339.69 271.44L1355.66 189.40L1382.02 189.40L1379.17 203.47Q1384.37 195.70 1392.17 191.57Q1399.97 187.43 1409.49 187.43Q1410.88 187.43 1412.64 187.57Q1414.40 187.72 1416.81 188.01" fill="#232629"/>
  <path d="M668.22 340.58L663.21 340.58L663.21 364.39L668.22 364.39Q674.55 364.39 677.50 361.52Q680.44 358.65 680.44 352.46Q680.44 346.31 677.50 343.44Q674.55 340.58 668.22 340.58M659.07 367.80L659.07 337.18L667.58 337.18Q676.48 337.18 680.65 340.88Q684.81 344.58 684.81 352.46Q684.81 360.37 680.63 364.09Q676.44 367.80 667.58 367.80M704.54 344.48L704.56 348.36Q703.92 347.99 703.17 347.81Q702.42 347.64 701.52 347.64Q698.32 347.64 696.61 349.72Q694.90 351.80 694.90 355.70L694.90 367.80L691.10 367.80L691.10 344.83L694.90 344.83L694.90 348.40Q696.09 346.31 698 345.29Q699.90 344.27 702.63 344.27Q703.02 344.27 703.49 344.33Q703.96 344.38 704.54 344.48M722.71 356.25L718.95 356.25Q714.38 356.25 712.62 357.30Q710.85 358.34 710.85 360.87Q710.85 362.88 712.18 364.05Q713.50 365.23 715.78 365.23Q718.91 365.23 720.81 363.01Q722.71 360.78 722.71 357.09L722.71 356.25M726.48 354.69L726.48 367.80L722.71 367.80L722.71 364.31Q721.42 366.40 719.49 367.40Q717.56 368.39 714.77 368.39Q711.24 368.39 709.16 366.41Q707.08 364.43 707.08 361.11Q707.08 357.24 709.67 355.27Q712.27 353.30 717.42 353.30L722.71 353.30L722.71 352.93Q722.71 350.32 720.99 348.90Q719.28 347.47 716.19 347.47Q714.22 347.47 712.35 347.95Q710.48 348.42 708.76 349.36L708.76 345.87Q710.83 345.07 712.78 344.67Q714.73 344.27 716.58 344.27Q721.56 344.27 724.02 346.86Q726.48 349.44 726.48 354.69M749.37 356.05Q749.37 351.94 747.68 349.69Q745.98 347.43 742.93 347.43Q739.89 347.43 738.20 349.69Q736.51 351.94 736.51 356.05Q736.51 360.13 738.20 362.38Q739.89 364.64 742.93 364.64Q745.98 364.64 747.68 362.38Q749.37 360.13 749.37 356.05M753.14 344.83L753.14 364.95Q753.14 370.81 750.54 373.67Q747.93 376.53 742.56 376.53Q740.57 376.53 738.81 376.24Q737.04 375.94 735.38 375.32L735.38 371.65Q737.04 372.56 738.66 372.99Q740.28 373.42 741.96 373.42Q745.68 373.42 747.52 371.48Q749.37 369.54 749.37 365.62L749.37 363.76Q748.20 365.79 746.37 366.79Q744.55 367.80 742 367.80Q737.78 367.80 735.20 364.58Q732.61 361.36 732.61 356.05Q732.61 350.71 735.20 347.49Q737.78 344.27 742 344.27Q744.55 344.27 746.37 345.28Q748.20 346.28 749.37 348.31L749.37 344.83M774.26 367.80L774.26 344.83L778.04 344.83L778.04 367.80L774.26 367.80M774.26 340.67L774.26 335.89L778.04 335.89L778.04 340.67M785.87 338.31L789.67 338.31L789.67 344.83L797.44 344.83L797.44 347.76L789.67 347.76L789.67 360.23Q789.67 363.04 790.43 363.84Q791.20 364.64 793.56 364.64L797.44 364.64L797.44 367.80L793.56 367.80Q789.19 367.80 787.53 366.17Q785.87 364.54 785.87 360.23L785.87 347.76L783.10 347.76L783.10 344.83L785.87 344.83M802.93 367.80L802.93 362.59L807.26 362.59L807.26 367.80M838.41 340.58L833.41 340.58L833.41 364.39L838.41 364.39Q844.75 364.39 847.69 361.52Q850.63 358.65 850.63 352.46Q850.63 346.31 847.69 343.44Q844.75 340.58 838.41 340.58M829.27 367.80L829.27 337.18L837.78 337.18Q846.68 337.18 850.84 340.88Q855 344.58 855 352.46Q855 360.37 850.82 364.09Q846.64 367.80 837.78 367.80M874.73 344.48L874.75 348.36Q874.12 347.99 873.37 347.81Q872.62 347.64 871.72 347.64Q868.52 347.64 866.81 349.72Q865.09 351.80 865.09 355.70L865.09 367.80L861.30 367.80L861.30 344.83L865.09 344.83L865.09 348.40Q866.28 346.31 868.19 345.29Q870.10 344.27 872.82 344.27Q873.21 344.27 873.69 344.33Q874.16 344.38 874.73 344.48M887.61 347.47Q884.58 347.47 882.81 349.84Q881.05 352.21 881.05 356.33Q881.05 360.46 882.80 362.82Q884.55 365.19 887.61 365.19Q890.63 365.19 892.39 362.81Q894.15 360.44 894.15 356.33Q894.15 352.25 892.39 349.86Q890.63 347.47 887.61 347.47M887.61 344.27Q892.53 344.27 895.34 347.47Q898.15 350.67 898.15 356.33Q898.15 361.97 895.34 365.18Q892.53 368.39 887.61 368.39Q882.67 368.39 879.87 365.18Q877.07 361.97 877.07 356.33Q877.07 350.67 879.87 347.47Q882.67 344.27 887.61 344.27M908.06 364.35L908.06 376.53L904.26 376.53L904.26 344.83L908.06 344.83L908.06 348.31Q909.25 346.26 911.06 345.27Q912.88 344.27 915.40 344.27Q919.58 344.27 922.20 347.60Q924.81 350.92 924.81 356.33Q924.81 361.75 922.20 365.07Q919.58 368.39 915.40 368.39Q912.88 368.39 911.06 367.40Q909.25 366.40 908.06 364.35M920.89 356.33Q920.89 352.17 919.18 349.80Q917.47 347.43 914.48 347.43Q911.48 347.43 909.77 349.80Q908.06 352.17 908.06 356.33Q908.06 360.50 909.77 362.87Q911.48 365.23 914.48 365.23Q917.47 365.23 919.18 362.87Q920.89 360.50 920.89 356.33M944.42 367.80L944.42 344.83L948.19 344.83L948.19 367.80L944.42 367.80M944.42 340.67L944.42 335.89L948.19 335.89L948.19 340.67M956.02 338.31L959.82 338.31L959.82 344.83L967.59 344.83L967.59 347.76L959.82 347.76L959.82 360.23Q959.82 363.04 960.59 363.84Q961.36 364.64 963.71 364.64L967.59 364.64L967.59 367.80L963.71 367.80Q959.35 367.80 957.69 366.17Q956.02 364.54 956.02 360.23L956.02 347.76L953.26 347.76L953.26 344.83L956.02 344.83M973.09 367.80L973.09 362.59L977.41 362.59L977.41 367.80M999.42 367.80L999.42 337.18L1003.56 337.18L1003.56 367.80M1030.73 353.93L1030.73 367.80L1026.96 367.80L1026.96 354.06Q1026.96 350.80 1025.69 349.18Q1024.42 347.56 1021.88 347.56Q1018.82 347.56 1017.06 349.50Q1015.29 351.45 1015.29 354.82L1015.29 367.80L1011.50 367.80L1011.50 344.83L1015.29 344.83L1015.29 348.40Q1016.65 346.33 1018.48 345.30Q1020.32 344.27 1022.72 344.27Q1026.67 344.27 1028.70 346.73Q1030.73 349.18 1030.73 353.93M1051.55 338.31L1055.34 338.31L1055.34 344.83L1063.12 344.83L1063.12 347.76L1055.34 347.76L1055.34 360.23Q1055.34 363.04 1056.11 363.84Q1056.88 364.64 1059.24 364.64L1063.12 364.64L1063.12 367.80L1059.24 367.80Q1054.87 367.80 1053.21 366.17Q1051.55 364.54 1051.55 360.23L1051.55 347.76L1048.78 347.76L1048.78 344.83L1051.55 344.83M1087.17 353.93L1087.17 367.80L1083.40 367.80L1083.40 354.06Q1083.40 350.80 1082.13 349.18Q1080.86 347.56 1078.31 347.56Q1075.26 347.56 1073.49 349.50Q1071.73 351.45 1071.73 354.82L1071.73 367.80L1067.94 367.80L1067.94 335.89L1071.73 335.89L1071.73 348.40Q1073.08 346.33 1074.92 345.30Q1076.75 344.27 1079.15 344.27Q1083.11 344.27 1085.14 346.73Q1087.17 349.18 1087.17 353.93M1114.34 355.37L1114.34 357.22L1097 357.22Q1097.24 361.11 1099.34 363.15Q1101.45 365.19 1105.20 365.19Q1107.37 365.19 1109.41 364.66Q1111.45 364.13 1113.46 363.06L1113.46 366.63Q1111.43 367.49 1109.30 367.94Q1107.17 368.39 1104.97 368.39Q1099.48 368.39 1096.27 365.19Q1093.06 361.99 1093.06 356.54Q1093.06 350.90 1096.10 347.59Q1099.15 344.27 1104.32 344.27Q1108.95 344.27 1111.65 347.26Q1114.34 350.24 1114.34 355.37M1097.12 354.28L1110.57 354.26Q1110.53 351.17 1108.84 349.32Q1107.15 347.47 1104.36 347.47Q1101.20 347.47 1099.30 349.26Q1097.41 351.04 1097.12 354.28M1149 348.31L1149 335.89L1152.78 335.89L1152.78 367.80L1149 367.80L1149 364.35Q1147.81 366.40 1146 367.40Q1144.18 368.39 1141.64 368.39Q1137.48 368.39 1134.86 365.07Q1132.25 361.75 1132.25 356.33Q1132.25 350.92 1134.86 347.60Q1137.48 344.27 1141.64 344.27Q1144.18 344.27 1146 345.27Q1147.81 346.26 1149 348.31M1136.14 356.33Q1136.14 360.50 1137.86 362.87Q1139.57 365.23 1142.56 365.23Q1145.56 365.23 1147.28 362.87Q1149 360.50 1149 356.33Q1149 352.17 1147.28 349.80Q1145.56 347.43 1142.56 347.43Q1139.57 347.43 1137.86 349.80Q1136.14 352.17 1136.14 356.33M1174.74 356.25L1170.99 356.25Q1166.41 356.25 1164.65 357.30Q1162.89 358.34 1162.89 360.87Q1162.89 362.88 1164.21 364.05Q1165.53 365.23 1167.81 365.23Q1170.95 365.23 1172.84 363.01Q1174.74 360.78 1174.74 357.09L1174.74 356.25M1178.51 354.69L1178.51 367.80L1174.74 367.80L1174.74 364.31Q1173.45 366.40 1171.52 367.40Q1169.59 368.39 1166.80 368.39Q1163.28 368.39 1161.19 366.41Q1159.11 364.43 1159.11 361.11Q1159.11 357.24 1161.71 355.27Q1164.30 353.30 1169.45 353.30L1174.74 353.30L1174.74 352.93Q1174.74 350.32 1173.03 348.90Q1171.32 347.47 1168.22 347.47Q1166.25 347.47 1164.38 347.95Q1162.52 348.42 1160.79 349.36L1160.79 345.87Q1162.87 345.07 1164.81 344.67Q1166.76 344.27 1168.61 344.27Q1173.59 344.27 1176.05 346.86Q1178.51 349.44 1178.51 354.69M1199.58 344.48L1199.60 348.36Q1198.96 347.99 1198.21 347.81Q1197.46 347.64 1196.56 347.64Q1193.36 347.64 1191.65 349.72Q1189.94 351.80 1189.94 355.70L1189.94 367.80L1186.14 367.80L1186.14 344.83L1189.94 344.83L1189.94 348.40Q1191.13 346.31 1193.03 345.29Q1194.94 344.27 1197.67 344.27Q1198.06 344.27 1198.53 344.33Q1199 344.38 1199.58 344.48M1203.41 367.80L1203.41 335.89L1207.20 335.89L1207.20 354.73L1218.46 344.83L1223.28 344.83L1211.10 355.57L1223.79 367.80L1218.87 367.80L1207.20 356.58L1207.20 367.80M1228.41 367.80L1228.41 362.59L1232.74 362.59L1232.74 367.80" fill="#5a5d5e"/>
</svg>
